<?xml version="1.0" encoding="UTF-8"?>
<svg width="300px" height="84px" viewBox="0 0 300 84" version="1.1" xmlns="http://www.w3.org/2000/svg" xmlns:xlink="http://www.w3.org/1999/xlink">
    <title>S系列</title>
    <g id="页面-1" stroke="none" stroke-width="1" fill="none" fill-rule="evenodd">
        <g id="S系列_Wap" transform="translate(-385.000000, -474.000000)" fill="#242933" fill-rule="nonzero">
            <path d="M427.82,553.54 C458.62,553.54 469.07,547.16 469.07,532.75 C469.07,519.66 460.16,515.15 444.21,512.51 L413.63,507.34 C405.05,505.8 400.21,504.59 400.21,499.31 C400.21,494.14 403.29,491.28 426.72,491.28 C441.57,491.28 457.41,493.26 465.55,494.8 L465.55,482.48 C457.3,480.72 442.89,479.07 426.83,479.07 C393.94,479.07 385.25,486 385.25,499.53 C385.25,513.61 396.03,517.02 410,519.44 L440.69,524.72 C449.38,526.26 454,527.69 454,532.75 C454,538.8 449.38,541.33 428.48,541.33 C410.66,541.33 394.16,538.25 386.13,536.27 L386.13,548.7 C394.38,550.9 409.23,553.54 427.82,553.54 Z M536.83,555.63 C538.7,553.76 539.69,551.01 539.69,546.83 L539.69,526.26 C546.51,525.82 553.22,525.16 559.82,524.28 L564.11,529.45 L577.53,529.45 L560.7,508.88 L547.5,508.88 L553.11,515.92 C542.55,517.13 531.11,517.9 520.11,518.12 C535.62,510.97 550.8,502.39 564.66,492.93 L545.63,492.93 L536.83,498.21 C529.57,498.87 522.2,499.2 516.04,499.09 C520.66,496.67 526.38,492.93 531.22,489.08 L536.28,489.08 C543.54,489.08 552.12,488.97 559.49,488.2 C564.44,487.65 570.05,486.77 574.89,485.67 L574.89,476.1 C569.39,477.53 563.67,478.52 557.84,479.07 C551.691579,479.591053 543.568643,479.717202 537.212378,479.729038 L487.22,479.73 L487.22,489.08 L514.06,489.08 C508.01,493.48 500.31,498.1 492.5,501.84 C491.07,502.5 490.08,503.82 490.19,505.25 C490.3,506.79 491.51,508.11 493.6,508.11 C502.84,508.11 511.64,507.78 520.55,507.01 C510.32,512.29 499.76,517.24 489.53,521.42 C487.77,522.19 487.11,523.73 487.44,525.05 C487.55,526.37 488.65,527.58 490.3,527.58 C502.51,527.69 514.83,527.69 527.26,527.03 L527.26,545.29 C527.26,547.82 526.05,548.15 524.07,547.93 C519.67,547.49 515.93,546.06 510.98,543.53 L510.98,553.54 C516.81,556.07 522.31,557.5 527.7,557.72 C531.77,558.05 534.85,557.39 536.83,555.63 Z M579.73,555.19 L562.02,532.09 L549.04,532.09 L566.64,555.19 L579.73,555.19 Z M496.24,555.19 L513.62,532.42 L500.2,532.42 L483.04,555.19 L496.24,555.19 Z M681.81,555.63 C683.68,553.98 684.67,551.12 684.67,546.5 L684.67,474.78 L672.9,474.78 L672.9,544.63 C672.9,546.94 672.46,547.71 670.26,547.49 C664.98,546.83 658.93,544.41 653.65,541.66 L653.65,552.44 C656.07,553.65 660.25,555.19 663,555.96 C665.86,556.84 668.94,557.39 671.8,557.61 C676.31,557.94 679.61,557.39 681.81,555.63 Z M608,557.83 C623.29,546.61 633.08,533.74 638.8,517.57 C640.67,512.29 642.43,506.57 643.42,500.41 C643.86,497.55 642.87,495.9 639.46,495.9 L618.56,495.9 C619.77,493.59 620.87,491.17 621.86,488.75 L647.05,488.75 L647.05,478.85 L594.91,478.85 L594.91,488.75 L610.09,488.75 C605.58,498.43 598.98,510.2 592.6,520.65 L604.59,520.65 C607.45,516.36 610.64,511.19 613.72,505.47 L631.43,505.47 C629.78,510.97 627.91,515.92 625.71,520.54 C621.86,518.12 617.02,515.7 613.28,514.05 L608.66,522.52 C612.07,524.17 616.8,526.92 620.54,529.34 C614.82,537.81 606.9,545.51 595.35,553.87 L608,557.83 Z M662.67,531.54 L662.67,483.36 L651.45,483.36 L651.45,531.54 L662.67,531.54 Z" id="S系列"></path>
        </g>
    </g>
</svg>