<?xml version="1.0" encoding="UTF-8"?>
<svg width="286px" height="41px" viewBox="0 0 286 41" version="1.1" xmlns="http://www.w3.org/2000/svg" xmlns:xlink="http://www.w3.org/1999/xlink">
    <title>机型图片-黑</title>
    <g id="Page-1" stroke="none" stroke-width="1" fill="none" fill-rule="evenodd">
        <g id="pc备份" transform="translate(-1124.000000, -2173.000000)" fill="#000000" fill-rule="nonzero">
            <g id="Group" transform="translate(1120.000000, 2108.000000)">
                <path d="M27.72,105.84 C44.52,105.84 50.22,102.36 50.22,94.5 C50.22,87.36 45.36,84.9 36.66,83.46 L19.98,80.64 C15.3,79.8 12.66,79.14 12.66,76.26 C12.66,73.44 14.34,71.88 27.12,71.88 C35.22,71.88 43.86,72.96 48.3,73.8 L48.3,67.08 C43.8,66.12 35.94,65.22 27.18,65.22 C9.24,65.22 4.5,69 4.5,76.38 C4.5,84.06 10.38,85.92 18,87.24 L34.74,90.12 C39.48,90.96 42,91.74 42,94.5 C42,97.8 39.48,99.18 28.08,99.18 C18.36,99.18 9.36,97.5 4.98,96.42 L4.98,103.2 C9.48,104.4 17.58,105.84 27.72,105.84 Z M78.42,105 L78.42,68.7 C78.42,66.12 77.28,65.22 75.36,65.22 C74.46,65.22 73.14,65.4 71.34,65.82 L56.28,68.82 L56.28,75.42 L70.68,72.84 L70.68,105 L78.42,105 Z M135.78,105 L135.78,98.4 L98.22,98.4 L98.22,96.84 C98.22,92.82 100.5,91.44 107.58,90.24 L120,87.84 C129.54,86.16 136.62,84.42 136.62,76.02 C136.62,67.8 130.44,65.22 114.24,65.22 C103.62,65.22 95.4,66.42 91.68,67.14 L91.68,73.8 C95.64,73.08 104.1,71.88 113.46,71.88 C125.52,71.88 128.46,72.84 128.46,76.32 C128.46,79.56 124.98,80.34 118.68,81.48 L103.56,84.24 C91.7588372,86.3748837 90.2735208,90.9128908 90.2405742,97.042984 L90.24,105 L135.78,105 Z M175.62,105 L175.62,92.34 L199.38,92.34 C207.96,92.34 214.14,87.6 214.14,79.14 C214.14,70.74 207.96,66.06 199.38,66.06 L167.88,66.06 L167.88,105 L175.62,105 Z M198.84,85.62 L175.62,85.62 L175.62,72.78 L198.84,72.78 C203.46,72.78 206.04,75 206.04,79.14 C206.04,83.34 203.46,85.62 198.84,85.62 Z M228.48,105 L228.48,83.88 C233.7,83.28 239.52,82.92 245.4,82.8 L245.4,75.96 C238.32,76.08 233.22,77.28 227.7,79.26 L225.3,77.34 C224.28,76.56 223.44,75.96 222.66,75.96 C221.52,75.96 221.1,76.68 221.1,77.58 L221.1,105 L228.48,105 Z M273.96,105.84 C284.04,105.84 289.98,99.48 289.98,90.9 C289.98,82.32 284.04,75.96 273.96,75.96 L265.5,75.96 C255.42,75.96 249.48,82.32 249.48,90.9 C249.48,99.48 255.42,105.84 265.5,105.84 L273.96,105.84 Z M273.18,99.66 L266.22,99.66 C260.34,99.66 257.1,96.36 257.1,90.9 C257.1,85.44 260.34,82.14 266.22,82.14 L273.18,82.14 C279.06,82.14 282.36,85.44 282.36,90.9 C282.36,96.36 279.06,99.66 273.18,99.66 Z" id="机型图片-黑"></path>
            </g>
        </g>
    </g>
</svg>