<?xml version="1.0" encoding="UTF-8"?>
<svg width="90px" height="90px" viewBox="0 0 90 90" version="1.1" xmlns="http://www.w3.org/2000/svg" xmlns:xlink="http://www.w3.org/1999/xlink">
    <title>ic微信</title>
    <g id="pc" stroke="none" stroke-width="1" fill="none" fill-rule="evenodd">
        <g id="PC服务1920" transform="translate(-1020.000000, -4045.000000)">
            <g id="ic微信" transform="translate(1020.000000, 4045.000000)">
                <g id="编组-20" transform="translate(12.000000, 19.000000)">
                    <path d="M53.0769231,32.3076923 C51.5473846,32.3076923 50.3076923,31.0675385 50.3076923,29.5384615 C50.3076923,28.0093846 51.5473846,26.7692308 53.0769231,26.7692308 C54.606,26.7692308 55.8461538,28.0093846 55.8461538,29.5384615 C55.8461538,31.0675385 54.606,32.3076923 53.0769231,32.3076923" id="路径" fill="#242933"></path>
                    <path d="M39.6923077,32.3076923 C38.1627692,32.3076923 36.9230769,31.0675385 36.9230769,29.5384615 C36.9230769,28.0093846 38.1627692,26.7692308 39.6923077,26.7692308 C41.2213846,26.7692308 42.4615385,28.0093846 42.4615385,29.5384615 C42.4615385,31.0675385 41.2213846,32.3076923 39.6923077,32.3076923" id="路径" fill="#242933"></path>
                    <path d="M46.1538462,18.4615385 C35.1927692,18.4615385 26.3076923,25.9006154 26.3076923,35.0769231 C26.3076923,44.2532308 35.1927692,51.6923077 46.1538462,51.6923077 C48.8215385,51.6923077 51.3646154,51.2487692 53.688,50.4498462 L58.1576094,52.9637564 C58.6389786,53.2345001 59.2486866,53.0637545 59.5194303,52.5823853 C59.6328151,52.3807928 59.6728139,52.1461295 59.632615,51.9183583 L58.9066154,47.8047692 L58.9066154,47.8047692 C63.2418462,44.7567692 66,40.1870769 66,35.0769231 C66,25.9006154 57.1144615,18.4615385 46.1538462,18.4615385 Z" id="路径" stroke="#242933" stroke-width="4"></path>
                    <path d="M15.9230769,16.6153846 C14.2661538,16.6153846 12.9230769,15.2723077 12.9230769,13.6153846 C12.9230769,11.9584615 14.2661538,10.6153846 15.9230769,10.6153846 C17.5795385,10.6153846 18.9230769,11.9584615 18.9230769,13.6153846 C18.9230769,15.2723077 17.5795385,16.6153846 15.9230769,16.6153846" id="路径" fill="#242933"></path>
                    <path d="M32.0769231,10.6153846 C33.7333846,10.6153846 35.0769231,11.9584615 35.0769231,13.6153846 C35.0769231,15.2723077 33.7333846,16.6153846 32.0769231,16.6153846 C30.42,16.6153846 29.0769231,15.2723077 29.0769231,13.6153846 C29.0769231,11.9584615 30.42,10.6153846 32.0769231,10.6153846" id="路径" fill="#242933"></path>
                    <path d="M47.0063313,14.1959367 C44.0640372,5.98836723 34.8801548,4.54747351e-13 24,4.54747351e-13 C10.7450769,4.54747351e-13 7.85149723e-13,8.88553846 7.85149723e-13,19.8461538 C7.85149723e-13,26.0829231 3.48184615,31.6449231 8.92292308,35.2832308 L8.1317111,40.5578642 C8.04978321,41.1040385 8.42612921,41.6132158 8.97230342,41.6951437 C9.17582576,41.7256727 9.38381103,41.6926651 9.5678814,41.6006246 L15.7767692,38.496 L15.7767692,38.496 C18.0408676,39.1787328 20.463882,39.5882162 22.9877407,39.6749464" id="路径" stroke="#242933" stroke-width="4"></path>
                    <path d="M23.069519,37.6858521 C23.1491903,38.5899455 23.2643127,39.3376058 23.4148865,39.928833 C23.5654602,40.5200602 23.7701518,41.0965322 24.0289612,41.6582489 C23.4087931,41.6945038 22.8531138,41.6866557 22.3619232,41.6347046 C21.8707326,41.5827535 21.3159078,41.1844584 20.6974487,40.4398193 L21.2219238,37.789917 L23.069519,37.6858521 Z" id="路径-9" fill="#242933"></path>
                    <path d="M45.1560669,14.8583984 C45.8236491,14.7971191 46.5329386,14.7664795 47.2839355,14.7664795 C48.0349325,14.7664795 48.7657471,14.8223572 49.4763794,14.9341125 C49.1362305,14.0993551 48.8679504,13.4360046 48.6715393,12.9440613 C48.4751282,12.4521179 48.3151957,12.1023153 48.1917419,11.8946533 L44.9138794,13.6153846 L45.1560669,14.8583984 Z" id="路径-10" fill="#242933"></path>
                </g>
            </g>
        </g>
    </g>
</svg>