<svg id="b4dbf6dd-fd21-4786-b405-1043cfcc2a2a" data-name="图层 1" xmlns="http://www.w3.org/2000/svg" width="114" height="29" viewBox="0 0 114 29"><defs><style>.e358d753-a28c-4931-9e46-b357094f78fa{fill:#221714;}</style></defs><path class="e358d753-a28c-4931-9e46-b357094f78fa" d="M13.8,17.91A6.37,6.37,0,0,1,11,15.43L.28.49H6.33L15.1,12.87a1.81,1.81,0,0,0,1.38.82,1.62,1.62,0,0,0,1.31-.82L26.56.49h6.05L21.89,15.43A6.31,6.31,0,0,1,19,18V28.51H13.8Z"/><path class="e358d753-a28c-4931-9e46-b357094f78fa" d="M55.15,5.08H34.23V.49H58.16a3.62,3.62,0,0,1,2.48.73,2.38,2.38,0,0,1,.73,1.87,5.37,5.37,0,0,1-1.22,3.08L45.2,28.51H38.91Z"/><path class="e358d753-a28c-4931-9e46-b357094f78fa" d="M77.94,29q-7.18,0-10.52-3.37T64.09,15q0-8,4.22-11.66Q72.26,0,80.58,0a38.67,38.67,0,0,1,8.24.73V5.28a39,39,0,0,0-8-.77q-5.73,0-8.16,1.5Q70,7.63,69.45,11.94a35.69,35.69,0,0,1,9.67-1.18c3.92,0,6.85.68,8.77,2s3,3.63,3,6.67a8.3,8.3,0,0,1-3.16,7.06Q84.43,29,77.94,29m0-4.47q4,0,5.89-1.18a4.09,4.09,0,0,0,1.87-3.73A3.87,3.87,0,0,0,83.87,16a11.5,11.5,0,0,0-5.57-1,38.64,38.64,0,0,0-9,1q.19,4.8,2.19,6.7t6.38,1.83"/><path class="e358d753-a28c-4931-9e46-b357094f78fa" d="M104.06,29a27.2,27.2,0,0,1-8.82-1.18V23.68A28.17,28.17,0,0,0,103.85,25a9.76,9.76,0,0,0,3.94-.57,1.71,1.71,0,0,0,1.06-1.62,1.61,1.61,0,0,0-.81-1.47,8.08,8.08,0,0,0-2.4-.77l-4.39-.89a10.63,10.63,0,0,1-4.55-1.79A5.11,5.11,0,0,1,95,13.77a5,5,0,0,1,2.23-4.59c1.52-1,4-1.46,7.39-1.46a29.52,29.52,0,0,1,7.68.85v4.14a27.7,27.7,0,0,0-7.6-1,10.66,10.66,0,0,0-3.85.48,1.55,1.55,0,0,0-1,1.51,1.5,1.5,0,0,0,.77,1.38,10.78,10.78,0,0,0,2.52.77l4.06.77a11.76,11.76,0,0,1,4.67,1.83,5,5,0,0,1,1.83,4.18,5.4,5.4,0,0,1-2.31,4.84Q109.09,29,104.06,29"/></svg>