<svg id="bcf8dc3e-469f-4de5-ad48-7795ec03c2b1" data-name="图层 1" xmlns="http://www.w3.org/2000/svg" width="116" height="29" viewBox="0 0 116 29"><defs><style>.e20624e7-7b3c-49fe-bd40-3890217c21e6{fill:#231815;}</style></defs><path class="e20624e7-7b3c-49fe-bd40-3890217c21e6" d="M106,29a27.75,27.75,0,0,1-9-1.21V23.55a28.58,28.58,0,0,0,8.82,1.38,10,10,0,0,0,4-.59,1.75,1.75,0,0,0,1.08-1.66,1.63,1.63,0,0,0-.83-1.49,7.75,7.75,0,0,0-2.45-.79l-4.5-.92a10.81,10.81,0,0,1-4.65-1.83,5.22,5.22,0,0,1-1.75-4.24A5.17,5.17,0,0,1,99,8.71q2.33-1.49,7.57-1.49a30.34,30.34,0,0,1,7.85.87v4.24a28.12,28.12,0,0,0-7.77-1,10.85,10.85,0,0,0-4,.5,1.58,1.58,0,0,0-1,1.54,1.5,1.5,0,0,0,.79,1.41,10.65,10.65,0,0,0,2.58.79l4.16.79A12.19,12.19,0,0,1,114,18.19a5.11,5.11,0,0,1,1.87,4.28,5.52,5.52,0,0,1-2.37,5Q111.13,29,106,29"/><path class="e20624e7-7b3c-49fe-bd40-3890217c21e6" d="M13.89,17.72A6.53,6.53,0,0,1,11,15.2L.13,0H6.29l8.92,12.6a1.83,1.83,0,0,0,1.4.82,1.63,1.63,0,0,0,1.33-.82L26.86,0H33L22.11,15.2a6.43,6.43,0,0,1-2.89,2.56V28.5H13.89Z"/><path class="e20624e7-7b3c-49fe-bd40-3890217c21e6" d="M47.14,29a54.46,54.46,0,0,1-6.61-.42,34.57,34.57,0,0,1-4.38-.74V23.21a48.33,48.33,0,0,0,11,1.24q5.11,0,7.14-1a3.71,3.71,0,0,0,2.15-3.67,3.78,3.78,0,0,0-1.9-3.64q-1.82-1-6.36-1-3.27,0-9,.45a2.54,2.54,0,0,1-2.24-.53A2.58,2.58,0,0,1,36.48,13L38.13,0H59.86V4.54H42.43l-.83,6.65a66.78,66.78,0,0,1,7.93-.49c3.8,0,6.7.58,8.68,1.73q3.72,2.16,3.72,7.15,0,5.25-4,7.48Q54.46,29,47.14,29Z"/><path class="e20624e7-7b3c-49fe-bd40-3890217c21e6" d="M77.62,29A54.46,54.46,0,0,1,71,28.58a34.36,34.36,0,0,1-4.37-.74V23.21a48.3,48.3,0,0,0,10.94,1.24q5.13,0,7.15-1a3.73,3.73,0,0,0,2.15-3.67A3.79,3.79,0,0,0,85,16.15q-1.83-1-6.37-1-3.26,0-9,.45a2.52,2.52,0,0,1-2.23-.53A2.54,2.54,0,0,1,67,13L68.62,0H90.35V4.54H72.91l-.82,6.65A66.65,66.65,0,0,1,80,10.7q5.7,0,8.67,1.73,3.72,2.16,3.72,7.15,0,5.25-4,7.48Q84.94,29,77.62,29Z"/></svg>