<svg id="f03b21d1-a871-4fc9-bb6d-bdca23286174" data-name="图层 1" xmlns="http://www.w3.org/2000/svg" width="91" height="29" viewBox="0 0 91 29"><path d="M13.61,18.48a6.86,6.86,0,0,1-3-2.6L.21.49H7l8.29,12.39a1.62,1.62,0,0,0,1.34.81,1.54,1.54,0,0,0,1.3-.81L26.17.49H33L22.59,15.88a6.66,6.66,0,0,1-3.05,2.64v10H13.61Z"/><path d="M46.56,29a48.48,48.48,0,0,1-11.3-1.18V22.71A48.19,48.19,0,0,0,46.39,24q4.63,0,6.5-1a3.27,3.27,0,0,0,1.83-3.17,3,3,0,0,0-1.54-2.88,11,11,0,0,0-4.63-.69h-7v-3.7l10-7H35.71v-5H57.6c1.74.08,2.6.84,2.6,2.27a3.68,3.68,0,0,1-1.82,3l-8.86,6.37H51.1q9.72.21,9.71,7.76c0,3.12-1.13,5.4-3.41,6.87S51.48,29,46.56,29Z"/><path d="M65.24,22.26q0-3.82,1.5-5.65,1.64-2,6.22-3.17l6.66-1.58a13.85,13.85,0,0,0,3.7-1.3,2.58,2.58,0,0,0,1.3-2.31,2.33,2.33,0,0,0-1.47-2.32,15.28,15.28,0,0,0-5.68-.73,47.31,47.31,0,0,0-11.3,1.34V1.3A52.58,52.58,0,0,1,78.32,0Q85,0,88,2c1.89,1.24,2.84,3.25,2.84,6a7,7,0,0,1-2.56,5.85,18.82,18.82,0,0,1-6.38,2.64l-5.56,1.42a12.58,12.58,0,0,0-4,1.63,2.78,2.78,0,0,0-1.06,2.35V23.4H90.18v5.11H65.24Z"/></svg>