<?xml version="1.0" encoding="UTF-8"?>
<svg width="315px" height="84px" viewBox="0 0 315 84" version="1.1" xmlns="http://www.w3.org/2000/svg" xmlns:xlink="http://www.w3.org/1999/xlink">
    <title>Y系列</title>
    <g id="页面-1" stroke="none" stroke-width="1" fill="none" fill-rule="evenodd">
        <g id="Y系列_Wap" transform="translate(-374.000000, -474.000000)" fill="#242933" fill-rule="nonzero">
            <path d="M434.15,552 L434.15,526.15 C438,524.61 440.53,521.97 442.84,519.66 L479.58,480.61 L461.21,480.61 L432.17,511.52 C430.41,513.5 428.76,514.49 427,514.49 C425.46,514.49 423.7,513.5 421.83,511.52 L392.68,480.61 L374.53,480.61 L411.05,519.66 C413.36,522.08 416.11,524.72 419.85,526.15 L419.85,552 L434.15,552 Z M540.63,555.63 C542.5,553.76 543.49,551.01 543.49,546.83 L543.49,526.26 C550.31,525.82 557.02,525.16 563.62,524.28 L567.91,529.45 L581.33,529.45 L564.5,508.88 L551.3,508.88 L556.91,515.92 C546.35,517.13 534.91,517.9 523.91,518.12 C539.42,510.97 554.6,502.39 568.46,492.93 L549.43,492.93 L540.63,498.21 C533.37,498.87 526,499.2 519.84,499.09 C524.46,496.67 530.18,492.93 535.02,489.08 L540.08,489.08 C547.34,489.08 555.92,488.97 563.29,488.2 C568.24,487.65 573.85,486.77 578.69,485.67 L578.69,476.1 C573.19,477.53 567.47,478.52 561.64,479.07 C555.491579,479.591053 547.368643,479.717202 541.012378,479.729038 L491.02,479.73 L491.02,489.08 L517.86,489.08 C511.81,493.48 504.11,498.1 496.3,501.84 C494.87,502.5 493.88,503.82 493.99,505.25 C494.1,506.79 495.31,508.11 497.4,508.11 C506.64,508.11 515.44,507.78 524.35,507.01 C514.12,512.29 503.56,517.24 493.33,521.42 C491.57,522.19 490.91,523.73 491.24,525.05 C491.35,526.37 492.45,527.58 494.1,527.58 C506.31,527.69 518.63,527.69 531.06,527.03 L531.06,545.29 C531.06,547.82 529.85,548.15 527.87,547.93 C523.47,547.49 519.73,546.06 514.78,543.53 L514.78,553.54 C520.61,556.07 526.11,557.5 531.5,557.72 C535.57,558.05 538.65,557.39 540.63,555.63 Z M583.53,555.19 L565.82,532.09 L552.84,532.09 L570.44,555.19 L583.53,555.19 Z M500.04,555.19 L517.42,532.42 L504,532.42 L486.84,555.19 L500.04,555.19 Z M685.61,555.63 C687.48,553.98 688.47,551.12 688.47,546.5 L688.47,474.78 L676.7,474.78 L676.7,544.63 C676.7,546.94 676.26,547.71 674.06,547.49 C668.78,546.83 662.73,544.41 657.45,541.66 L657.45,552.44 C659.87,553.65 664.05,555.19 666.8,555.96 C669.66,556.84 672.74,557.39 675.6,557.61 C680.11,557.94 683.41,557.39 685.61,555.63 Z M611.8,557.83 C627.09,546.61 636.88,533.74 642.6,517.57 C644.47,512.29 646.23,506.57 647.22,500.41 C647.66,497.55 646.67,495.9 643.26,495.9 L622.36,495.9 C623.57,493.59 624.67,491.17 625.66,488.75 L650.85,488.75 L650.85,478.85 L598.71,478.85 L598.71,488.75 L613.89,488.75 C609.38,498.43 602.78,510.2 596.4,520.65 L608.39,520.65 C611.25,516.36 614.44,511.19 617.52,505.47 L635.23,505.47 C633.58,510.97 631.71,515.92 629.51,520.54 C625.66,518.12 620.82,515.7 617.08,514.05 L612.46,522.52 C615.87,524.17 620.6,526.92 624.34,529.34 C618.62,537.81 610.7,545.51 599.15,553.87 L611.8,557.83 Z M666.47,531.54 L666.47,483.36 L655.25,483.36 L655.25,531.54 L666.47,531.54 Z" id="Y系列"></path>
        </g>
    </g>
</svg>