<?xml version="1.0" encoding="UTF-8"?>
<svg width="429px" height="85px" viewBox="0 0 429 85" version="1.1" xmlns="http://www.w3.org/2000/svg" xmlns:xlink="http://www.w3.org/1999/xlink">
    <title>智能硬件</title>
    <g id="页面-1" stroke="none" stroke-width="1" fill="none" fill-rule="evenodd">
        <g id="智能硬件_Wap" transform="translate(-325.000000, -474.000000)" fill="#242933" fill-rule="nonzero">
            <path d="M342.66,512.18 C347.39,508.88 351.24,504.92 354.21,500.41 L356.74,500.41 L363.23,511.85 L375.11,511.85 L368.29,500.41 L377.42,500.41 L377.42,491.94 L358.39,491.94 C358.94,490.29 359.49,488.64 359.82,486.88 L376.32,486.88 L376.32,478.3 L344.64,478.3 C345.19,477.2 345.63,475.99 346.18,474.78 L334.52,474.78 C332.54,479.51 329.68,484.57 325.83,490.07 L337.6,490.07 C338.37,489.08 339.14,487.98 339.8,486.88 L348.05,486.88 C347.61,488.75 347.06,490.4 346.51,491.94 L327.15,491.94 L327.15,500.41 L341.45,500.41 C337.93,504.59 333.2,508.22 327.26,512.18 L342.66,512.18 Z M420.1,510.86 L420.1,481.49 C420.1,479.51 418.67,478.08 416.69,478.08 L380.72,478.08 L380.72,510.86 L420.1,510.86 Z M409.1,502.06 L391.72,502.06 L391.72,486.77 L409.1,486.77 L409.1,502.06 Z M413.39,555.96 L413.39,518.23 C413.39,516.25 411.96,514.82 409.98,514.82 L336.5,514.82 L336.5,555.96 L413.39,555.96 Z M401.62,530.11 L348.27,530.11 L348.27,523.73 L401.62,523.73 L401.62,530.11 Z M401.62,547.16 L348.27,547.16 L348.27,538.36 L401.62,538.36 L401.62,547.16 Z M487.75,498.98 L477.41,480.39 L466.08,480.39 L470.26,488.09 C464.54,488.97 459.7,489.19 453.1,489.3 C456.51,485.78 460.25,480.94 464.32,474.67 L451.89,474.67 C448.37,479.84 443.42,486.33 438.25,491.94 C435.83,494.36 437.15,497.77 440.34,497.88 C453.1,497.99 463.33,497.55 474.44,495.9 L476.2,498.98 L487.75,498.98 Z M511.62,508.77 C519.32,508.77 526.91,507.45 532.74,503.49 L532.74,494.25 C526.14,498.43 519.87,500.08 511.62,500.08 L504.8,500.08 C502.82,500.08 502.16,499.53 502.16,497.55 L502.16,491.06 C504.8,490.95 507.44,490.73 510.08,490.51 C516.9,489.85 522.51,488.75 529.44,486.77 L529.44,478.52 C521.96,480.72 516.24,481.93 509.2,482.48 C506.89,482.7 504.47,482.81 502.16,482.92 L502.16,474.78 L490.61,474.78 L490.61,498.65 C490.61,502.39 491.6,505.25 493.58,506.79 C495.67,508.22 498.64,508.77 502.49,508.77 L511.62,508.77 Z M482.25,546.06 L482.25,505.36 C482.25,503.27 480.93,501.95 478.95,501.95 L440.12,501.95 L440.12,557.06 L451.12,557.06 L451.12,536.49 L471.36,536.49 L471.36,546.17 C471.36,548.15 470.48,548.92 468.61,548.7 C465.86,548.48 462.56,547.82 459.26,546.06 L459.26,554.53 C463.11,556.4 467.95,557.17 472.35,557.17 C479.61,557.28 482.25,553.65 482.25,546.06 Z M471.36,516.47 L451.12,516.47 L451.12,510.31 L471.36,510.31 L471.36,516.47 Z M511.51,555.41 C519.1,555.41 527.79,553.87 533.51,549.69 L533.51,540.12 C527.02,544.41 519.65,546.39 511.51,546.39 L504.58,546.39 C502.71,546.39 502.05,545.84 502.05,543.75 L502.05,531.54 C505.02,531.43 507.99,531.1 510.85,530.77 C518.55,530 523.94,528.57 529.55,525.93 L529.55,516.69 C522.84,519.66 517.56,521.2 510.3,521.86 C507.55,522.19 504.8,522.41 502.05,522.52 L502.05,512.62 L490.39,512.62 L490.39,544.96 C490.39,549.03 491.38,551.89 493.47,553.32 C495.56,554.86 498.53,555.41 502.38,555.41 L511.51,555.41 Z M471.36,529.78 L451.12,529.78 L451.12,523.29 L471.36,523.29 L471.36,529.78 Z M634.16,558.27 L645.49,550.46 C629.76,548.37 619.42,545.51 610.84,541.33 C613.15,538.14 614.69,534.51 615.9,530.22 L640.32,530.22 L640.32,495.57 C640.32,493.48 638.89,492.16 636.91,492.16 L618.65,492.16 L618.65,486.44 L642.96,486.44 L642.96,477.31 L584.55,477.31 L584.55,486.44 L607.98,486.44 L607.98,492.16 L586.53,492.16 L586.53,530.22 L604.9,530.22 C604.02,532.42 603.03,534.29 601.82,536.16 C600.39,535.17 598.96,534.18 597.64,533.08 L584.88,533.08 C588.29,536.71 591.7,539.9 595.33,542.76 C591.04,546.06 585.21,549.25 577.62,552.88 L589.5,558.16 C595.55,554.86 600.39,551.89 604.24,548.59 C612.38,552.99 621.95,556.07 634.16,558.27 Z M579.93,549.8 L579.93,503.38 C579.93,501.29 578.5,499.86 576.52,499.86 L565.08,499.86 C566.62,495.68 567.94,491.39 569.04,487.21 L581.47,487.21 L581.47,478.3 L547.59,478.3 L547.59,487.21 L558.04,487.21 C555.18,497.99 551,508.44 545.28,518.34 L553.64,518.34 L553.64,549.8 L579.93,549.8 Z M630.31,506.9 L618.54,506.9 C618.54,505.58 618.65,504.15 618.65,502.72 L618.65,500.85 L630.31,500.85 L630.31,506.9 Z M607.98,506.9 L596.54,506.9 L596.54,500.85 L607.98,500.85 L607.98,506.9 Z M569.81,541 L563.76,541 L563.76,508.77 L569.81,508.77 L569.81,541 Z M630.31,521.53 L617.66,521.53 C617.99,519.44 618.1,517.13 618.32,514.71 L630.31,514.71 L630.31,521.53 Z M606.99,521.53 L596.54,521.53 L596.54,514.71 L607.65,514.71 C607.54,517.24 607.32,519.44 606.99,521.53 Z M727.44,557.83 L727.44,526.04 L753.4,526.04 L753.4,515.92 L727.44,515.92 L727.44,497.99 L749.99,497.99 L749.99,487.98 L727.44,487.98 L727.44,474.78 L715.45,474.78 L715.45,487.98 L703.79,487.98 C704.67,484.9 705.44,481.82 706.21,478.74 L694.22,478.74 C692.24,487.54 688.5,498.98 683.55,509.1 L696.09,509.1 C697.63,505.8 699.06,501.95 700.49,497.99 L715.45,497.99 L715.45,515.92 L684.43,515.92 L684.43,526.04 L715.45,526.04 L715.45,557.83 L727.44,557.83 Z M679.26,557.83 L679.26,499.86 L675.3,499.86 C679.37,491.94 683.11,483.47 686.52,474.78 L674.09,474.78 C669.69,486 662.65,500.63 655.17,512.95 L667.38,512.95 L667.38,557.83 L679.26,557.83 Z" id="智能硬件"></path>
        </g>
    </g>
</svg>