<svg xmlns="http://www.w3.org/2000/svg" viewBox="0 0 281.09 24.26"><defs><style>.cls-1{fill:#242933;}</style></defs><title>vivo 无线运动耳机</title><g id="图层_2" data-name="图层 2"><g id="图层_1-2" data-name="图层 1"><g id="vivo_无线运动耳机" data-name="vivo 无线运动耳机"><path class="cls-1" d="M11.26,23a4.52,4.52,0,0,1-2.52-.64A6.05,6.05,0,0,1,7,20.22L0,7.52H4.51l5.83,11.2a1,1,0,0,0,1,.67,1,1,0,0,0,1-.67l5.79-11.2h4.48l-7,12.7a6,6,0,0,1-1.7,2.15A4.6,4.6,0,0,1,11.26,23Z"/><path class="cls-1" d="M26.75.26a.64.64,0,0,1,1,0L29.66,2a.61.61,0,0,1,0,1.06L27.78,4.67a.67.67,0,0,1-1,0L24.86,3a.68.68,0,0,1,0-1.06Zm-1.47,22.3v-15h3.94v15Z"/><path class="cls-1" d="M43.26,23a4.52,4.52,0,0,1-2.52-.64A6.05,6.05,0,0,1,39,20.22L32,7.52h4.51l5.83,11.2a1,1,0,0,0,1,.67,1,1,0,0,0,1-.67l5.79-11.2h4.48l-7,12.7a6,6,0,0,1-1.7,2.15A4.6,4.6,0,0,1,43.26,23Z"/><path class="cls-1" d="M64.9,23a8.63,8.63,0,0,1-6.24-2.21A7.66,7.66,0,0,1,56.35,15a7.56,7.56,0,0,1,2.31-5.73A8.56,8.56,0,0,1,64.9,7.07h4.51a8.6,8.6,0,0,1,6.24,2.24A7.59,7.59,0,0,1,78,15a7.69,7.69,0,0,1-2.3,5.76A8.66,8.66,0,0,1,69.41,23Zm.38-3.3H69a5.06,5.06,0,0,0,3.62-1.21A4.64,4.64,0,0,0,73.89,15a4.5,4.5,0,0,0-1.28-3.42A5,5,0,0,0,69,10.37H65.28a4.8,4.8,0,0,0-3.58,1.25A4.47,4.47,0,0,0,60.42,15,4.6,4.6,0,0,0,61.7,18.5,4.91,4.91,0,0,0,65.28,19.71Z"/><path class="cls-1" d="M95.07,4V1.06h23.1V4H107.9a30.32,30.32,0,0,1-.32,4.35h12.48v3h-8.7v8.83c0,.55.26.83.8.83h1.37a10.62,10.62,0,0,0,3.59-.61,14.57,14.57,0,0,0,3.68-1.88v3.16a13.37,13.37,0,0,1-3,1.64,12.47,12.47,0,0,1-4.07.67h-2a4.41,4.41,0,0,1-2.82-.74,3.28,3.28,0,0,1-1-2.75V11.33H107a24.78,24.78,0,0,1-1.19,3.29,24.62,24.62,0,0,1-3.13,5.06,28,28,0,0,1-4.93,4.58l-5.28-.13q7.29-5,10-10.5a11.3,11.3,0,0,0,.93-2.3H93.18v-3h10.88A31.33,31.33,0,0,0,104.32,4Z"/><path class="cls-1" d="M135.77,5a69.44,69.44,0,0,1-5.66,8.13,32.93,32.93,0,0,0,4.93-.74v2.76a85.14,85.14,0,0,1-8.8,1.24,1,1,0,0,1-1.09-.57,1.13,1.13,0,0,1,.32-1.25q1.95-2.37,3.78-4.86c-1.24.15-2.47.24-3.68.28a1,1,0,0,1-1.06-.57,1.08,1.08,0,0,1,.16-1.19A84.58,84.58,0,0,0,129.57.1h3.48A69.39,69.39,0,0,1,128.86,7l2.37-.16L132.41,5ZM124.51,19.9a103,103,0,0,0,10.56-2.33v3a78.73,78.73,0,0,1-10.56,2.33Zm11.36-13V4.13l3.78-.26c-.07-1.26-.14-2.52-.23-3.77h3.49c.06,1.17.12,2.34.16,3.52L146,3.39,145,.83h3.17l1,2.34L151.74,3V5.7l-8.41.6c.08.79.17,1.57.25,2.34l8.64-.86V10.5l-8.29.83c.2,1.23.44,2.45.74,3.65a19.64,19.64,0,0,0,3.39-3.08h3.62A23,23,0,0,1,145.53,18a18,18,0,0,0,.93,2.28,1.34,1.34,0,0,0,2,.73,19.5,19.5,0,0,0,4.19-2.69v3.33a10.85,10.85,0,0,1-3.84,2.24,5.11,5.11,0,0,1-2.62.19,3.84,3.84,0,0,1-2.69-2.2,16.93,16.93,0,0,1-1-2.12,31.12,31.12,0,0,1-6.85,2.63V19.2a34.18,34.18,0,0,0,5.92-2.4,45.31,45.31,0,0,1-1.09-5.12l-5,.48V9.41L140.19,9l-.29-2.4Z"/><path class="cls-1" d="M156.61,20.7c1.15-.76,2.35-1.52,3.61-2.27V10.34h-3.74V7.49h6.11a1,1,0,0,1,.74.29,1,1,0,0,1,.25.73v9.63a11.06,11.06,0,0,0,6.66,2.53h8.32a19.1,19.1,0,0,0,6.24-1v2.95a18.15,18.15,0,0,1-6.21,1h-8.22a13.75,13.75,0,0,1-8.32-3q-3.24,2-5.44,3.55Zm1.21-17.56V.06l6.4,2.79V6Zm7.46,6.14V6.43h18.56V9.28h-9Q172.89,12.39,171,15a38,38,0,0,0,7-.74l-1.69-3.58h3.39l3.9,7.77H180l-.77-1.57a63.06,63.06,0,0,1-12.35,1,1.19,1.19,0,0,1-1.15-.67A1.4,1.4,0,0,1,166,16a73.76,73.76,0,0,0,4.83-6.72Zm1.5-5.41V1.09h15.39V3.87Z"/><path class="cls-1" d="M199.55,21.63l-.42-1.28a69.42,69.42,0,0,1-8.41,1.83,1.25,1.25,0,0,1-1.19-.42,1.49,1.49,0,0,1-.09-1.18,103.7,103.7,0,0,0,3.2-10.4h-4.16V7.26h13.31v2.92h-5.7c-.76,3-1.64,5.89-2.62,8.73q2.43-.48,4.86-1.15l-1.6-5.28H200l2.4,7.94A32.84,32.84,0,0,0,205,7.07h-2.59V4.16H205V.1h3.36V4.16h6.14a.91.91,0,0,1,1,1V21a3.87,3.87,0,0,1-.67,2.47,3.07,3.07,0,0,1-2.53.77,14.35,14.35,0,0,1-4.67-1.44V19.87a14.22,14.22,0,0,0,3.75,1.38c.51.13.76-.1.76-.67V7.07h-3.77a47.16,47.16,0,0,1-1,9.41,23.32,23.32,0,0,1-3,7.78h-4a23.32,23.32,0,0,0,1.53-2.63Zm-10-17.5V1.22H201V4.13Z"/><path class="cls-1" d="M221.12,3.84V1h27.07V3.84H244V16.13l4.83-.29v2.88L244,19v5.25h-3.65V19.2l-19.84,1.06V17.38l4-.23V3.84Zm7,0v2.3h12.16V3.84Zm0,4.74v2.36h12.16V8.58Zm0,4.76V17l12.16-.64v-3Z"/><path class="cls-1" d="M257,24.26V11.52a54.07,54.07,0,0,1-2.08,6.4h-3a60.74,60.74,0,0,0,3.46-11.3h-2.88V3.68H257V.1h3.29V3.68h3.2V6.62h-3.2v2l3.2,2.14v3.3l-3.2-2.27V24.26Zm24.13-1.8a7.91,7.91,0,0,1-4.36,1.44,3.42,3.42,0,0,1-2.84-.73,3.7,3.7,0,0,1-.87-2.82V4.16h-4.86v6.66a36.92,36.92,0,0,1-.51,6.81,17.62,17.62,0,0,1-2.5,6.63h-3.62A19.78,19.78,0,0,0,264.38,17a35.58,35.58,0,0,0,.45-6.27V1.18h10.56a1,1,0,0,1,.74.29,1,1,0,0,1,.25.71V19.84a1.19,1.19,0,0,0,.23.8.81.81,0,0,0,.73.22,6.94,6.94,0,0,0,3.75-1.5Z"/></g></g></g></svg>