<svg xmlns="http://www.w3.org/2000/svg" viewBox="0 0 511.55 29.92"><defs><style>.cls-1{fill:#242933;}</style></defs><title>iQOO 2A Type-C 手游数据线</title><g id="图层_2" data-name="图层 2"><g id="图层_1-2" data-name="图层 1"><g id="iQOO_2A_Type-C_手游数据线" data-name="iQOO 2A Type-C 手游数据线"><path class="cls-1" d="M2.14.26a.64.64,0,0,1,1,0L5.06,2A.62.62,0,0,1,5.06,3L3.17,4.67a.67.67,0,0,1-1,0L.26,3A.67.67,0,0,1,.26,2ZM.67,22.56v-15H4.61v15Z"/><path class="cls-1" d="M40.42,12.19a11.64,11.64,0,0,1-1.67,6.21A9.52,9.52,0,0,1,34,22.27l3.2,4.39H32.29L29.66,23H20c-3.6-.09-6.32-1.15-8.16-3.2a11.07,11.07,0,0,1-2.78-7.65,11,11,0,0,1,2.78-7.61Q14.63,1.47,20,1.34h9.44q5.41.13,8.16,3.24A11,11,0,0,1,40.42,12.19ZM28.67,19.36a7.75,7.75,0,0,0,5.38-1.82,6.92,6.92,0,0,0,2-5.35,6.82,6.82,0,0,0-2-5.31A7.64,7.64,0,0,0,28.67,5H20.83a7.59,7.59,0,0,0-5.37,1.86,6.79,6.79,0,0,0-2,5.31,6.89,6.89,0,0,0,2,5.35,7.71,7.71,0,0,0,5.37,1.82Z"/><path class="cls-1" d="M64.8,1.34c3.6.09,6.33,1.17,8.16,3.24a10.87,10.87,0,0,1,2.78,7.61A11,11,0,0,1,73,19.81c-1.83,2.05-4.56,3.11-8.16,3.2H55.39c-3.6-.09-6.32-1.15-8.16-3.2a11,11,0,0,1-2.78-7.62,10.91,10.91,0,0,1,2.78-7.61Q50,1.47,55.39,1.34Zm-.8,18a7.71,7.71,0,0,0,5.38-1.83,6.9,6.9,0,0,0,2-5.31,6.87,6.87,0,0,0-2-5.31A7.64,7.64,0,0,0,64,5H56.19a7.59,7.59,0,0,0-5.37,1.86,6.79,6.79,0,0,0-2,5.31,6.82,6.82,0,0,0,2,5.31,7.67,7.67,0,0,0,5.37,1.83Z"/><path class="cls-1" d="M100.13,1.34q5.4.13,8.16,3.24a10.91,10.91,0,0,1,2.78,7.61,11,11,0,0,1-2.78,7.62c-1.84,2.05-4.56,3.11-8.16,3.2H90.72c-3.61-.09-6.33-1.15-8.16-3.2a11,11,0,0,1-2.78-7.62,10.87,10.87,0,0,1,2.78-7.61q2.75-3.11,8.16-3.24Zm-.8,18a7.67,7.67,0,0,0,5.37-1.83,6.87,6.87,0,0,0,2-5.31,6.84,6.84,0,0,0-2-5.31A7.59,7.59,0,0,0,99.33,5H91.52a7.64,7.64,0,0,0-5.38,1.86,6.82,6.82,0,0,0-2,5.31,6.85,6.85,0,0,0,2,5.31,7.71,7.71,0,0,0,5.38,1.83Z"/><path class="cls-1" d="M126.72,22.56V18.43a11.24,11.24,0,0,1,.19-2.17,4.73,4.73,0,0,1,1-2.08c.85-1.2,2.84-2.09,5.95-2.69L141.89,10a19.63,19.63,0,0,0,3.87-1,1.87,1.87,0,0,0,1.34-1.8,1.73,1.73,0,0,0-1.25-1.76c-1-.42-3.29-.63-6.75-.6a65,65,0,0,0-11.61,1V2.37a63.78,63.78,0,0,1,12-1q6.55,0,9.25,1.28a4.52,4.52,0,0,1,2.68,4.48,4.74,4.74,0,0,1-2.33,4.39,19.79,19.79,0,0,1-6.53,1.92L136,14.69A10.53,10.53,0,0,0,132,15.9,2.63,2.63,0,0,0,131,18.21V19h20v3.52Z"/><path class="cls-1" d="M181,22.56l-2.91-4.9H161.25l-3,4.9h-4.54L165.28,3.78a4.54,4.54,0,0,1,4.38-2.44,4.62,4.62,0,0,1,4.42,2.44L185.6,22.56ZM163.39,14h12.48L171.2,6.14a1.81,1.81,0,0,0-1.54-.92,1.69,1.69,0,0,0-1.53.92Z"/><path class="cls-1" d="M210,22.56V5.47H198.37V1.79h27.39V5.47H214.14V22.56Z"/><path class="cls-1" d="M237.73,29.92a26.47,26.47,0,0,1-7.68-1V25.63a27.11,27.11,0,0,0,7.52,1,11.76,11.76,0,0,0,5.15-.86,3.05,3.05,0,0,0,1.69-2.91V20.7a16.74,16.74,0,0,1-7.2,1.6c-2.77,0-4.79-.53-6-1.6a6,6,0,0,1-1.89-4.83V7.52h3.93V15a3.59,3.59,0,0,0,1.12,2.91c.73.6,2,.9,4,.9a21.48,21.48,0,0,0,6.08-.87V7.52h4V23.1Q248.35,29.92,237.73,29.92Z"/><path class="cls-1" d="M253.18,29.47V7.94c0-.58.28-.87.83-.87a2.31,2.31,0,0,1,1.41.71l1.34,1.08a21.5,21.5,0,0,1,3.11-1.21,15.8,15.8,0,0,1,4.35-.58q4.45,0,6.85,2t2.4,5.95q-.06,4.09-2.66,6.05A11.19,11.19,0,0,1,263.9,23a14.41,14.41,0,0,1-6.75-1.54v8Zm10.15-9.82a7.91,7.91,0,0,0,4.54-1.09A4,4,0,0,0,269.41,15a4.11,4.11,0,0,0-1.51-3.52,7.7,7.7,0,0,0-4.57-1.12,18.75,18.75,0,0,0-6.21,1v7.14a14.19,14.19,0,0,0,2.62.77A18,18,0,0,0,263.33,19.65Z"/><path class="cls-1" d="M295.33,14a22.19,22.19,0,0,1-.16,2.24H280.22a3.41,3.41,0,0,0,1.83,2.88,12.27,12.27,0,0,0,5.4.8,23.53,23.53,0,0,0,3.88-.32,16.92,16.92,0,0,0,2.94-.73V22a23.66,23.66,0,0,1-7.14,1c-3.92,0-6.71-.66-8.35-2s-2.41-3.3-2.37-5.95.82-4.66,2.47-6,4-2,7.1-2q5.06.1,7.23,2A6.1,6.1,0,0,1,295.33,14Zm-3.94-.22A3,3,0,0,0,290.17,11a7.12,7.12,0,0,0-4.12-.93,7.51,7.51,0,0,0-4.13.9,3.72,3.72,0,0,0-1.67,2.75Z"/><path class="cls-1" d="M298.43,15.3V11.9H311v3.4Z"/><path class="cls-1" d="M329.76,23q-7.87,0-11.59-2.56t-3.74-8.23q0-5.62,3.74-8.25t11.59-2.63A44.42,44.42,0,0,1,340.09,2.4V6.08A47.33,47.33,0,0,0,330,5q-6,0-8.58,1.7t-2.59,5.5q0,3.78,2.62,5.44T330,19.33a45.51,45.51,0,0,0,10.3-1V22C338.38,22.58,334.88,22.92,329.76,23Z"/><path class="cls-1" d="M383.64,12.51v3h-11.8V20.7a3.42,3.42,0,0,1-1.06,2.85,4.46,4.46,0,0,1-3.36.61,13.29,13.29,0,0,1-5.15-1.57v-3.1a10.39,10.39,0,0,0,5,1.69A.91.91,0,0,0,368,21a1.19,1.19,0,0,0,.19-.74v-4.7H355.32v-3h12.87V9.89H358.11V6.94h10.08V4.58H356.92V1.63h12.71q4.22,0,6.65-.22a34.27,34.27,0,0,0,5.7-.9v3a43.72,43.72,0,0,1-5.34.83c-1.56.15-3.16.23-4.8.23V6.94h9.08v3h-9.08v2.62Z"/><path class="cls-1" d="M392.51,11.84a56.08,56.08,0,0,0-5.15-2.56V6.18a47.86,47.86,0,0,1,5.15,2.49Zm.89,1.73a72.79,72.79,0,0,1-2.59,10.37h-3.29a84,84,0,0,0,2.81-10.37Zm-.57-7.87q-2.4-1.35-4.77-2.44v-3a40.18,40.18,0,0,1,4.77,2.27Zm.86-.2V2.72h3.52l-1-2.62h3.43l1,2.62h2.78V5.5h-5.18V7.81h4.09a1,1,0,0,1,.74.29.89.89,0,0,1,.29.7V21a3.16,3.16,0,0,1-.74,2.27,2.46,2.46,0,0,1-2.08.67,7.6,7.6,0,0,1-3-.92V20.19a5.13,5.13,0,0,0,2.12.83q.6.11.6-.51v-10h-2v.41a35.76,35.76,0,0,1-2.21,13h-3.52a35.4,35.4,0,0,0,2.59-13.28V5.5Zm9.22,1.41A35.39,35.39,0,0,0,406.24.1h3.39c-.26.66-.51,1.31-.77,1.95h6.66V4.86h-8a15,15,0,0,1-1.09,1.86H414a.84.84,0,0,1,.93.77,1.71,1.71,0,0,1-.25,1l-2.76,4h3.68v2.72h-4.06v5.92a3.15,3.15,0,0,1-.86,2.53,4,4,0,0,1-2.69.51,8.24,8.24,0,0,1-3-.8V20.54a8.49,8.49,0,0,0,2.62.9c.47.08.71-.14.71-.67v-5.6h-4.19V12.45h4.38l1.89-3h-5.25V6.91Z"/><path class="cls-1" d="M419.13,22.72a25,25,0,0,0,5.79-2.66l-4.09-1.82c.7-.92,1.33-1.82,1.89-2.72h-3.17V12.93h4.77l.76-1.35h3.36l-.7,1.35h5a1,1,0,0,1,1,.57,1.26,1.26,0,0,1,0,1.22,16.11,16.11,0,0,1-3.07,4.67l3.26,1.31L431.64,23l-3.48-1.54a20.75,20.75,0,0,1-5.73,2.85Zm25.22,1.5a26.46,26.46,0,0,1-4.1-4.35,23.91,23.91,0,0,1-4.48,4.45L432.54,23a25.87,25.87,0,0,0,5.89-5.89,31,31,0,0,1-3-7h-1.92c.28.41.55.81.8,1.22h-3.07A24.08,24.08,0,0,1,429.08,7h-.54v3.9h-3.17V7h-.64a16.61,16.61,0,0,1-2.27,4.26h-3A20.62,20.62,0,0,0,421.92,7h-2.31V4.48h5.76V.13h3.17V4.48H434V7h-2.14a25.07,25.07,0,0,0,1.47,2.75A44.33,44.33,0,0,0,436.83.1h3.36c-.28,1-.56,2-.83,3h7.71V6h-2A26.63,26.63,0,0,1,442,17.15a32.43,32.43,0,0,0,5.63,5.6ZM424.6,3.87h-2.94l-1.79-3h3Zm1.6,11.65c-.36.53-.73,1.07-1.12,1.6l2.5,1a9.69,9.69,0,0,0,2.21-2.62ZM433.92.83l-1.7,3h-2.91l1.63-3Zm6.2,13.31A22.6,22.6,0,0,0,442,6h-3.68a16.63,16.63,0,0,1-1,2.2h.52A27,27,0,0,0,440.12,14.14Z"/><path class="cls-1" d="M451.48,19.9a7.28,7.28,0,0,0,2,1.09c.58.15.87-.08.87-.7V14.4l-3,.7V12.26l3-.71V6.88h-3V4h3V.1h3.26V4h2.46V6.88h-2.46v3.68l2.43-.83v2.85l-2.43.86v7.33a3,3,0,0,1-1.06,2.69,3.35,3.35,0,0,1-2.94.35,6.56,6.56,0,0,1-2.18-1Zm7,4.36a24.58,24.58,0,0,0,2-6.21,52.83,52.83,0,0,0,.45-7.68V.8h16.6a1.08,1.08,0,0,1,.74.26.89.89,0,0,1,.29.7V8.19h-5v2h5.92v2.65H473.6v2h4.06a1,1,0,0,1,1,1v8H465.31v-9h5v-2h-6a28.62,28.62,0,0,1-2.3,11.43ZM475.26,3.33h-11v2.3h11Zm-11,4.86v2h6v-2Zm11.17,9.09h-6.85v3.84h6.85Z"/><path class="cls-1" d="M494.62,5A69.44,69.44,0,0,1,489,13.12a32.81,32.81,0,0,0,4.92-.74v2.76a84.75,84.75,0,0,1-8.8,1.24,1,1,0,0,1-1.08-.57,1.11,1.11,0,0,1,.32-1.25q1.95-2.37,3.77-4.86c-1.24.15-2.46.24-3.68.28a1,1,0,0,1-1.05-.57,1.06,1.06,0,0,1,.16-1.19A84.46,84.46,0,0,0,488.41.1h3.49A71.34,71.34,0,0,1,487.71,7l2.37-.16L491.26,5ZM483.36,19.9a103,103,0,0,0,10.56-2.33v3a78.73,78.73,0,0,1-10.56,2.33Zm11.36-13V4.13l3.77-.26c-.06-1.26-.14-2.52-.22-3.77h3.49c.06,1.17.11,2.34.16,3.52l2.94-.23L503.8.83H507l1,2.34L510.59,3V5.7l-8.42.6c.09.79.17,1.57.26,2.34l8.64-.86V10.5l-8.29.83c.19,1.23.44,2.45.74,3.65a19.64,19.64,0,0,0,3.39-3.08h3.61A22.78,22.78,0,0,1,504.38,18a18,18,0,0,0,.93,2.28,1.34,1.34,0,0,0,2.05.73,19.74,19.74,0,0,0,4.19-2.69v3.33a11,11,0,0,1-3.84,2.24,5.15,5.15,0,0,1-2.63.19,3.83,3.83,0,0,1-2.68-2.2,14.47,14.47,0,0,1-1-2.12,31.51,31.51,0,0,1-6.85,2.63V19.2a34.51,34.51,0,0,0,5.92-2.4,45.31,45.31,0,0,1-1.09-5.12l-5.06.48V9.41L499,9l-.29-2.4Z"/></g></g></g></svg>