<svg xmlns="http://www.w3.org/2000/svg" viewBox="0 0 314.49 26.66"><defs><style>.cls-1{fill:#242933;}</style></defs><title>iQOO 闪电游戏手柄</title><g id="图层_2" data-name="图层 2"><g id="图层_1-2" data-name="图层 1"><g id="iQOO_闪电游戏手柄" data-name="iQOO 闪电游戏手柄"><path class="cls-1" d="M2.14.26a.64.64,0,0,1,1,0L5.06,2A.62.62,0,0,1,5.06,3L3.17,4.67a.67.67,0,0,1-1,0L.26,3A.67.67,0,0,1,.26,2ZM.67,22.56v-15H4.61v15Z"/><path class="cls-1" d="M40.42,12.19a11.64,11.64,0,0,1-1.67,6.21A9.52,9.52,0,0,1,34,22.27l3.2,4.39H32.29L29.66,23H20c-3.6-.09-6.32-1.15-8.16-3.2a11.07,11.07,0,0,1-2.78-7.65,11,11,0,0,1,2.78-7.61Q14.63,1.47,20,1.34h9.44q5.41.13,8.16,3.24A11,11,0,0,1,40.42,12.19ZM28.67,19.36a7.75,7.75,0,0,0,5.38-1.82,6.92,6.92,0,0,0,2-5.35,6.82,6.82,0,0,0-2-5.31A7.64,7.64,0,0,0,28.67,5H20.83a7.59,7.59,0,0,0-5.37,1.86,6.79,6.79,0,0,0-2,5.31,6.89,6.89,0,0,0,2,5.35,7.71,7.71,0,0,0,5.37,1.82Z"/><path class="cls-1" d="M64.8,1.34c3.6.09,6.33,1.17,8.16,3.24a10.87,10.87,0,0,1,2.78,7.61A11,11,0,0,1,73,19.81c-1.83,2.05-4.56,3.11-8.16,3.2H55.39c-3.6-.09-6.32-1.15-8.16-3.2a11,11,0,0,1-2.78-7.62,10.91,10.91,0,0,1,2.78-7.61Q50,1.47,55.39,1.34Zm-.8,18a7.71,7.71,0,0,0,5.38-1.83,6.9,6.9,0,0,0,2-5.31,6.87,6.87,0,0,0-2-5.31A7.64,7.64,0,0,0,64,5H56.19a7.59,7.59,0,0,0-5.37,1.86,6.79,6.79,0,0,0-2,5.31,6.82,6.82,0,0,0,2,5.31,7.67,7.67,0,0,0,5.37,1.83Z"/><path class="cls-1" d="M100.13,1.34q5.4.13,8.16,3.24a10.91,10.91,0,0,1,2.78,7.61,11,11,0,0,1-2.78,7.62c-1.84,2.05-4.56,3.11-8.16,3.2H90.72c-3.61-.09-6.33-1.15-8.16-3.2a11,11,0,0,1-2.78-7.62,10.87,10.87,0,0,1,2.78-7.61q2.75-3.11,8.16-3.24Zm-.8,18a7.67,7.67,0,0,0,5.37-1.83,6.87,6.87,0,0,0,2-5.31,6.84,6.84,0,0,0-2-5.31A7.59,7.59,0,0,0,99.33,5H91.52a7.64,7.64,0,0,0-5.38,1.86,6.82,6.82,0,0,0-2,5.31,6.85,6.85,0,0,0,2,5.31,7.71,7.71,0,0,0,5.38,1.83Z"/><path class="cls-1" d="M127.45,24.26V5.82h3.46V24.26Zm.23-21.09V.1l6.14,1.79V5Zm13.76,4.25a12.56,12.56,0,0,1-.26,2.53h2.08l4.87,8.23h-3.75l-3.65-6.5a16.3,16.3,0,0,1-4,6.5h-4.26q5.73-5.67,5.5-10.69V5.54h3.43Zm1.21,12.26a27.21,27.21,0,0,0,6.28,1.6c.61,0,.92-.25.92-.8V4H136V1.22h16.35a1,1,0,0,1,.73.28,1,1,0,0,1,.26.71V20.86q0,3.47-3.65,3.4a24.08,24.08,0,0,1-7-1.57Z"/><path class="cls-1" d="M159.49,16.86V2.21h10.43V.1h3.52V2.21h9.79a1,1,0,0,1,.74.29,1,1,0,0,1,.25.7V16.86H173.44v2.72a1,1,0,0,0,.22.71.84.84,0,0,0,.67.22H179a13.4,13.4,0,0,0,7.45-2.75v3.17A12,12,0,0,1,179,23.52h-5.19a4.37,4.37,0,0,1-2.85-.83,3.07,3.07,0,0,1-1.05-2.56V16.86Zm3.42-11.74V7.9h7V5.12Zm0,5.5V14h7V10.62Zm17.89-5.5h-7.36V7.9h7.36ZM173.44,14h7.36V10.62h-7.36Z"/><path class="cls-1" d="M195.36,11.84a56.08,56.08,0,0,0-5.15-2.56V6.18a47.86,47.86,0,0,1,5.15,2.49Zm.89,1.73a74.16,74.16,0,0,1-2.59,10.37h-3.29a84,84,0,0,0,2.81-10.37Zm-.57-7.87q-2.4-1.35-4.77-2.44v-3a40.18,40.18,0,0,1,4.77,2.27Zm.86-.2V2.72h3.52L199.1.1h3.43l1,2.62h2.78V5.5h-5.18V7.81h4.09a1,1,0,0,1,.74.29.89.89,0,0,1,.29.7V21a3.16,3.16,0,0,1-.74,2.27,2.46,2.46,0,0,1-2.08.67,7.55,7.55,0,0,1-3-.92V20.19a5.13,5.13,0,0,0,2.12.83q.6.11.6-.51v-10h-2v.41a35.76,35.76,0,0,1-2.21,13h-3.52A35.4,35.4,0,0,0,198,10.66V5.5Zm9.22,1.41A35.39,35.39,0,0,0,209.09.1h3.39c-.26.66-.51,1.31-.77,1.95h6.66V4.86h-8a15,15,0,0,1-1.09,1.86h7.58a.84.84,0,0,1,.93.77,1.71,1.71,0,0,1-.25,1l-2.76,4h3.68v2.72h-4.06v5.92a3.15,3.15,0,0,1-.86,2.53,4,4,0,0,1-2.69.51,8.24,8.24,0,0,1-3-.8V20.54a8.4,8.4,0,0,0,2.62.9c.47.08.71-.14.71-.67v-5.6H207V12.45h4.38l1.89-3H208V6.91Z"/><path class="cls-1" d="M222,22.72a37.2,37.2,0,0,0,5.73-8.51c-1.5-2.54-3.07-5.09-4.74-7.65h3.78l2.46,3.87a34,34,0,0,0,1.35-5.57h-8V2h10.62c.83,0,1.17.43,1,1.28a48.56,48.56,0,0,1-2.78,10.88q1.73,3.11,3.46,6.21L231.93,22l-2.24-4.25a28.36,28.36,0,0,1-3.87,5.53ZM234.33,9.44V6.69l4.07-.39q-.19-3-.26-6.2h3.59q0,3,.22,5.88l7.94-.76V7.94l-7.68.73c.17,1.58.38,3.08.64,4.51a18.5,18.5,0,0,0,3.29-3.52h3.68a27.93,27.93,0,0,1-6.24,6.85,24.49,24.49,0,0,0,1.12,3.39,1.53,1.53,0,0,0,.87,1,2.13,2.13,0,0,0,1.4-.16,17.46,17.46,0,0,0,3.52-1.95V22a11.4,11.4,0,0,1-3,1.63,4.83,4.83,0,0,1-3.78.07A5.75,5.75,0,0,1,240.93,20l-.45-1.28A36.31,36.31,0,0,1,235,21.47V18.08a35.71,35.71,0,0,0,4.64-2.53,60.38,60.38,0,0,1-1-6.53Zm10.82-5L243.42.8h3.33l1.7,3.65Z"/><path class="cls-1" d="M282.49,12.51v3h-11.8V20.7a3.42,3.42,0,0,1-1.06,2.85,4.46,4.46,0,0,1-3.36.61,13.29,13.29,0,0,1-5.15-1.57v-3.1a10.39,10.39,0,0,0,5,1.69.91.91,0,0,0,.71-.22,1.19,1.19,0,0,0,.19-.74v-4.7H254.17v-3H267V9.89H257V6.94H267V4.58H255.77V1.63h12.71q4.22,0,6.65-.22a34.27,34.27,0,0,0,5.7-.9v3a43.72,43.72,0,0,1-5.34.83c-1.56.15-3.16.23-4.8.23V6.94h9.08v3h-9.08v2.62Z"/><path class="cls-1" d="M290.3,24.26v-13a.31.31,0,0,1,0,.13,63.48,63.48,0,0,1-1.82,6.88h-2.88a61.86,61.86,0,0,0,2.24-7.39c.34-1.3.64-2.63.89-4h-2.49V4.16h4.09V.1h3.2V4.16H296V6.88H293.5v2L296,10.75v3.3L293.5,12V24.26ZM308,11.2l2.33,6.88h-3.16l-1.48-4.48a19.48,19.48,0,0,1-2.27,4.54H300v6.12h-3.14v-18h6.78V3.78h-7.29V.93h18.17V3.78h-7.68V6.27h6a1,1,0,0,1,.73.29,1,1,0,0,1,.26.7V20.77a3.48,3.48,0,0,1-.86,2.72,4,4,0,0,1-2.95.57,15.46,15.46,0,0,1-5.05-1.34V19.84a22.35,22.35,0,0,0,4.57,1.54c.77.17,1.15-.11,1.15-.84V9.09h-4a15.51,15.51,0,0,1-.36,2.11Zm-8,6.62a19,19,0,0,0,3.52-8.73H300Z"/></g></g></g></svg>