<svg xmlns="http://www.w3.org/2000/svg" viewBox="0 0 423.17 24.32"><defs><style>.cls-1{fill:#242933;}</style></defs><title>vivo 33W 闪充车载充电器</title><g id="图层_2" data-name="图层 2"><g id="图层_1-2" data-name="图层 1"><g id="vivo_33W_闪充车载充电器" data-name="vivo 33W 闪充车载充电器"><path class="cls-1" d="M11.26,23a4.52,4.52,0,0,1-2.52-.64A6.05,6.05,0,0,1,7,20.22L0,7.52H4.51l5.83,11.2a1,1,0,0,0,1,.67,1,1,0,0,0,1-.67l5.79-11.2h4.48l-7,12.7a6,6,0,0,1-1.7,2.15A4.6,4.6,0,0,1,11.26,23Z"/><path class="cls-1" d="M26.75.26a.64.64,0,0,1,1,0L29.66,2a.61.61,0,0,1,0,1.06L27.78,4.67a.67.67,0,0,1-1,0L24.86,3a.68.68,0,0,1,0-1.06Zm-1.47,22.3v-15h3.94v15Z"/><path class="cls-1" d="M43.26,23a4.52,4.52,0,0,1-2.52-.64A6.05,6.05,0,0,1,39,20.22L32,7.52h4.51l5.83,11.2a1,1,0,0,0,1,.67,1,1,0,0,0,1-.67l5.79-11.2h4.48l-7,12.7a6,6,0,0,1-1.7,2.15A4.6,4.6,0,0,1,43.26,23Z"/><path class="cls-1" d="M64.9,23a8.63,8.63,0,0,1-6.24-2.21A7.66,7.66,0,0,1,56.35,15a7.56,7.56,0,0,1,2.31-5.73A8.56,8.56,0,0,1,64.9,7.07h4.51a8.6,8.6,0,0,1,6.24,2.24A7.59,7.59,0,0,1,78,15a7.69,7.69,0,0,1-2.3,5.76A8.66,8.66,0,0,1,69.41,23Zm.38-3.3H69a5.06,5.06,0,0,0,3.62-1.21A4.64,4.64,0,0,0,73.89,15a4.5,4.5,0,0,0-1.28-3.42A5,5,0,0,0,69,10.37H65.28a4.8,4.8,0,0,0-3.58,1.25A4.47,4.47,0,0,0,60.42,15,4.6,4.6,0,0,0,61.7,18.5,4.91,4.91,0,0,0,65.28,19.71Z"/><path class="cls-1" d="M108.09,10.62q4.51,0,6.72,1.32A4.6,4.6,0,0,1,117,16.26a5.44,5.44,0,0,1-3.14,5.15c-2.09,1.06-5.43,1.6-10,1.6a52.47,52.47,0,0,1-11.71-1.15V18.34a57.78,57.78,0,0,0,11.68,1.18,23.17,23.17,0,0,0,7-.7,2.6,2.6,0,0,0,1.92-2.53,2.09,2.09,0,0,0-1.21-2.08,10.46,10.46,0,0,0-4.29-.61H98.81V10.94l10.85-5.66h-17V1.79h21.88a2,2,0,0,1,1.44.45,1.53,1.53,0,0,1,.45,1.18,2.39,2.39,0,0,1-1.6,2.21l-9.37,5Z"/><path class="cls-1" d="M135.93,10.62q4.51,0,6.72,1.32a4.6,4.6,0,0,1,2.18,4.32,5.44,5.44,0,0,1-3.14,5.15c-2.09,1.06-5.43,1.6-10,1.6A52.47,52.47,0,0,1,120,21.86V18.34a57.78,57.78,0,0,0,11.68,1.18,23.17,23.17,0,0,0,7-.7,2.6,2.6,0,0,0,1.92-2.53,2.09,2.09,0,0,0-1.21-2.08A10.46,10.46,0,0,0,135,13.6h-8.39V10.94L137.5,5.28h-17V1.79h21.88a2,2,0,0,1,1.44.45,1.53,1.53,0,0,1,.45,1.18,2.39,2.39,0,0,1-1.6,2.21l-9.37,5Z"/><path class="cls-1" d="M158.11,23a3.72,3.72,0,0,1-2.4-.61,5.07,5.07,0,0,1-1.31-2L146.78,1.79h4.48l6.85,17.35L165.41,4A2.38,2.38,0,0,1,168,2.5a3.23,3.23,0,0,1,1.56.32,2.31,2.31,0,0,1,1,1.15l7.32,15.2,6.82-17.38h4.48l-7.62,18.56a4.35,4.35,0,0,1-1.21,1.95,3.64,3.64,0,0,1-2.5.71,3.58,3.58,0,0,1-2.21-.55,5,5,0,0,1-1.34-1.85L168,7.26l-6.34,13.35a4.94,4.94,0,0,1-1.28,1.85A3.64,3.64,0,0,1,158.11,23Z"/><path class="cls-1" d="M204,24.26V5.82h3.46V24.26Zm.23-21.09V.1l6.14,1.79V5ZM218,7.42a12.56,12.56,0,0,1-.26,2.53h2.08l4.87,8.23h-3.75l-3.64-6.5a16.44,16.44,0,0,1-4,6.5H209q5.73-5.67,5.51-10.69V5.54H218Zm1.22,12.26a27,27,0,0,0,6.27,1.6c.62,0,.93-.25.93-.8V4H212.48V1.22h16.35a1,1,0,0,1,.74.28,1,1,0,0,1,.25.71V20.86c0,2.31-1.21,3.44-3.65,3.4a23.94,23.94,0,0,1-7-1.57Z"/><path class="cls-1" d="M235.1,2H247L246.21.1h3.93L250.88,2h11.74V4.64H248.83a50.43,50.43,0,0,1-6,5.25l4.73-.1c1.73,0,3.44-.13,5.12-.25.64-.07,1.28-.14,1.92-.23L251.81,6h3.93l6.43,7.2H258l-1.28-1.5c-.81.13-1.62.25-2.43.35v8.19c0,.54.26.8.77.8h1.5a8.2,8.2,0,0,0,2.75-.54,16.65,16.65,0,0,0,3.52-1.73v3.07a14.31,14.31,0,0,1-3.13,1.57,11.71,11.71,0,0,1-3.59.58h-1.37a4.51,4.51,0,0,1-2.85-.77,3.16,3.16,0,0,1-1-2.69V12.35c-.92,0-1.84.08-2.76.1l-1.47,0a14.57,14.57,0,0,1-6,11.84l-5.12-.22a21.56,21.56,0,0,0,5.69-5.48,11.77,11.77,0,0,0,2-6l-5.44.09a1.05,1.05,0,0,1-1-.64,1.17,1.17,0,0,1,.45-1.25q3.94-3.06,7.27-6.14H235.1Z"/><path class="cls-1" d="M267.45,5.41V2.34h7.4L276.19.1h3.9l-1.37,2.24h15.52V5.41H276.86l-2.43,4.06h5.41V6.88h3.39V9.47h9.47v2.91h-9.47v3.24H295v3.07H283.23v5.57h-3.39V18.69H266.72V15.62h13.12V12.38h-9.35a.82.82,0,0,1-.86-.48,1.18,1.18,0,0,1,.19-1.15L273,5.41Z"/><path class="cls-1" d="M300.12,4.35V1.89h5.22V.1h3.46V1.89H314V4.35H308.8V6.08h6.88c-.13-2-.22-4-.26-6H319q0,2.91.23,6h7.68v2.5h-7.49c.17,2.07.44,4.12.8,6.17a21,21,0,0,0,2.88-4.54h3.3a23.26,23.26,0,0,1-5.44,8c.19.62.37,1.24.54,1.85a1.32,1.32,0,0,0,1.89.87A24,24,0,0,0,327,18.75v3.43a8.61,8.61,0,0,1-4.55,2,3.59,3.59,0,0,1-2.78-.64A5.35,5.35,0,0,1,318,20.64l0,0a24.75,24.75,0,0,1-2.53,1.5V18.72a14.32,14.32,0,0,0,1.73-1.09,65.06,65.06,0,0,1-1.28-9h-17V6.08h6.46V4.35Zm6.05,19.91V21.38c-2.68.12-5,.19-7,.19v-2.4c1.89,0,4.23-.07,7-.19v-1.6H301c-.68-.05-1.09-.31-1.21-.8a1.44,1.44,0,0,1,.41-1.22,30.19,30.19,0,0,0,2.15-2.66h-2.85V10.34H304l.68-1.12h3.52l-.64,1.12h7V12.7H306A19,19,0,0,1,304.16,15h2V13.7h3.49V15h4.61v2.34h-4.61v1.4l4.93-.44v2.4l-4.93.44v3.08ZM322,5.12,320.57.9h3.11l1.44,4.22Z"/><path class="cls-1" d="M331.1,2H343L342.21.1h3.93L346.88,2h11.74V4.64H344.83a50.43,50.43,0,0,1-5.95,5.25l4.73-.1c1.73,0,3.44-.13,5.12-.25.64-.07,1.28-.14,1.92-.23L347.81,6h3.93l6.43,7.2H354l-1.28-1.5c-.81.13-1.62.25-2.43.35v8.19c0,.54.26.8.77.8h1.5a8.2,8.2,0,0,0,2.75-.54,16.65,16.65,0,0,0,3.52-1.73v3.07a14.31,14.31,0,0,1-3.13,1.57,11.71,11.71,0,0,1-3.59.58h-1.37a4.51,4.51,0,0,1-2.85-.77,3.16,3.16,0,0,1-1-2.69V12.35c-.92,0-1.84.08-2.76.1l-1.47,0a14.57,14.57,0,0,1-6,11.84l-5.12-.22a21.56,21.56,0,0,0,5.69-5.48,11.77,11.77,0,0,0,2-6l-5.44.09a1.05,1.05,0,0,1-1-.64,1.17,1.17,0,0,1,.45-1.25q3.94-3.06,7.27-6.14H331.1Z"/><path class="cls-1" d="M364,16.86V2.21h10.43V.1H378V2.21h9.79a1,1,0,0,1,.74.29,1,1,0,0,1,.25.7V16.86H378v2.72a1,1,0,0,0,.22.71.87.87,0,0,0,.68.22h4.7A13.4,13.4,0,0,0,391,17.76v3.17a12,12,0,0,1-7.48,2.59h-5.19a4.33,4.33,0,0,1-2.84-.83,3,3,0,0,1-1.06-2.56V16.86Zm3.42-11.74V7.9h7V5.12Zm0,5.5V14h7V10.62Zm17.89-5.5H378V7.9h7.36ZM378,14h7.36V10.62H378Z"/><path class="cls-1" d="M395.1,11.46V9.12h11.71a5.51,5.51,0,0,0,.1-.74V7.71h3.36v.64a6.76,6.76,0,0,1-.1.77h4.58L414,7.94h3.39l.74,1.18h4.45v2.34h-9.35a34.27,34.27,0,0,0,10,2.62l-3.05,1.76h.26a1,1,0,0,1,.74.29,1,1,0,0,1,.29.73v6.66H410V15.84h8.81a27.24,27.24,0,0,1-9.7-4.38h-.38q-2.92,3-10.56,4.38h8.44a1,1,0,0,1,.74.29,1.05,1.05,0,0,1,.26.73v6.66H396.29V15.84h1.15l-2.91-1.7q7.32-1.19,10.11-2.68Zm1.41-4.07V.86h10.11a1,1,0,0,1,.74.29.91.91,0,0,1,.29.71V7.39Zm8,10.79h-5.09v3h5.09Zm0-15.17h-4.93V5.25h4.93Zm5.54,4.38V.86h10a1,1,0,0,1,.74.29.91.91,0,0,1,.28.71V7.39ZM418,3h-4.83V5.25H418Zm.29,15.17h-5.12v3h5.12Z"/></g></g></g></svg>