<svg xmlns="http://www.w3.org/2000/svg" viewBox="0 0 250.78 26.66"><defs><style>.cls-1{fill:#242933;}</style></defs><title>iQOO 影音耳机</title><g id="图层_2" data-name="图层 2"><g id="图层_1-2" data-name="图层 1"><g id="iQOO_影音耳机" data-name="iQOO 影音耳机"><path class="cls-1" d="M2.14.26a.64.64,0,0,1,1,0L5.06,2A.62.62,0,0,1,5.06,3L3.17,4.67a.67.67,0,0,1-1,0L.26,3A.67.67,0,0,1,.26,2ZM.67,22.56v-15H4.61v15Z"/><path class="cls-1" d="M40.42,12.19a11.64,11.64,0,0,1-1.67,6.21A9.52,9.52,0,0,1,34,22.27l3.2,4.39H32.29L29.66,23H20c-3.6-.09-6.32-1.15-8.16-3.2a11.07,11.07,0,0,1-2.78-7.65,11,11,0,0,1,2.78-7.61Q14.63,1.47,20,1.34h9.44q5.41.13,8.16,3.24A11,11,0,0,1,40.42,12.19ZM28.67,19.36a7.75,7.75,0,0,0,5.38-1.82,6.92,6.92,0,0,0,2-5.35,6.82,6.82,0,0,0-2-5.31A7.64,7.64,0,0,0,28.67,5H20.83a7.59,7.59,0,0,0-5.37,1.86,6.79,6.79,0,0,0-2,5.31,6.89,6.89,0,0,0,2,5.35,7.71,7.71,0,0,0,5.37,1.82Z"/><path class="cls-1" d="M64.8,1.34c3.6.09,6.33,1.17,8.16,3.24a10.87,10.87,0,0,1,2.78,7.61A11,11,0,0,1,73,19.81c-1.83,2.05-4.56,3.11-8.16,3.2H55.39c-3.6-.09-6.32-1.15-8.16-3.2a11,11,0,0,1-2.78-7.62,10.91,10.91,0,0,1,2.78-7.61Q50,1.47,55.39,1.34Zm-.8,18a7.71,7.71,0,0,0,5.38-1.83,6.9,6.9,0,0,0,2-5.31,6.87,6.87,0,0,0-2-5.31A7.64,7.64,0,0,0,64,5H56.19a7.59,7.59,0,0,0-5.37,1.86,6.79,6.79,0,0,0-2,5.31,6.82,6.82,0,0,0,2,5.31,7.67,7.67,0,0,0,5.37,1.83Z"/><path class="cls-1" d="M100.13,1.34q5.4.13,8.16,3.24a10.91,10.91,0,0,1,2.78,7.61,11,11,0,0,1-2.78,7.62c-1.84,2.05-4.56,3.11-8.16,3.2H90.72c-3.61-.09-6.33-1.15-8.16-3.2a11,11,0,0,1-2.78-7.62,10.87,10.87,0,0,1,2.78-7.61q2.75-3.11,8.16-3.24Zm-.8,18a7.67,7.67,0,0,0,5.37-1.83,6.87,6.87,0,0,0,2-5.31,6.84,6.84,0,0,0-2-5.31A7.59,7.59,0,0,0,99.33,5H91.52a7.64,7.64,0,0,0-5.38,1.86,6.82,6.82,0,0,0-2,5.31,6.85,6.85,0,0,0,2,5.31,7.71,7.71,0,0,0,5.38,1.83Z"/><path class="cls-1" d="M132.54,18.08a26.09,26.09,0,0,1-3.26,4.83h-3.36a37.61,37.61,0,0,0,3.39-4.83Zm12-7.36h-18.3V8.58H134l-.38-1H127.9V.8h14a1.09,1.09,0,0,1,.74.26.88.88,0,0,1,.28.7V7.58h-5.82l.32,1h7.07Zm-7.07,10.66a2.85,2.85,0,0,1-.77,2.33,2.71,2.71,0,0,1-2.27.51,9,9,0,0,1-3-.86V20.93a8.35,8.35,0,0,0,2.18.73.58.58,0,0,0,.42-.09.81.81,0,0,0,.12-.48v-4h-6.4V11.71h14.34a.91.91,0,0,1,1,1v4.42h-5.63Zm2.4-6.4V13.76H131V15Zm-8.7-12.36v.84h8.57V2.62Zm8.57,3.14V4.93h-8.57v.83Zm.8,16.64a29.69,29.69,0,0,0-2.11-4.32h3.36a31.88,31.88,0,0,1,2.05,4.32Zm14.18-7.46a25.27,25.27,0,0,1-8.87,9.54l-3.48-1a28.11,28.11,0,0,0,8.86-8.55Zm-.51-7.45A26.91,26.91,0,0,1,147.33,15l-3.49-.83a31.44,31.44,0,0,0,6.88-6.69ZM154.14.58a25.07,25.07,0,0,1-6.78,7l-3.46-.84a28.88,28.88,0,0,0,6.66-6.2Z"/><path class="cls-1" d="M158.27,10V7.42h7.07l-1.15-2.27H168l1.12,2.27h6.4l1.25-2.27h3.87l-1.28,2.27h7V10Zm1.31-5.57V1.89h10.91L169.66.1h3.94l.8,1.79h10.75V4.45Zm1.67,19.33V11.71h21.18a.91.91,0,0,1,1,1V23.78Zm3.39-9.48v2H180v-2Zm0,6.92H180V18.66H164.64Z"/><path class="cls-1" d="M190.81,3.84V1h27.08V3.84h-4.23V16.13l4.83-.29v2.88l-4.83.29v5.25H210V19.2l-19.84,1.06V17.38l4-.23V3.84Zm7,0v2.3H210V3.84Zm0,4.74v2.36H210V8.58Zm0,4.76V17L210,16.32v-3Z"/><path class="cls-1" d="M226.65,24.26V11.52a50.63,50.63,0,0,1-2.08,6.4h-3a61.47,61.47,0,0,0,3.45-11.3h-2.88V3.68h4.48V.1H230V3.68h3.2V6.62H230v2l3.2,2.14v3.3L230,11.81V24.26Zm24.13-1.8a7.88,7.88,0,0,1-4.35,1.44,3.45,3.45,0,0,1-2.85-.73,3.7,3.7,0,0,1-.86-2.82V4.16h-4.87v6.66a36.92,36.92,0,0,1-.51,6.81,17.43,17.43,0,0,1-2.49,6.63h-3.62A20.13,20.13,0,0,0,234.08,17a35.58,35.58,0,0,0,.45-6.27V1.18h10.56a1,1,0,0,1,.73.29,1,1,0,0,1,.26.71V19.84a1.19,1.19,0,0,0,.22.8.84.84,0,0,0,.74.22,6.94,6.94,0,0,0,3.74-1.5Z"/></g></g></g></svg>